<?xml version="1.0" encoding="utf-8"?>
<!-- Svg Vector Icons : http://www.onlinewebfonts.com/icon -->
<!DOCTYPE svg PUBLIC "-//W3C//DTD SVG 1.1//EN" "http://www.w3.org/Graphics/SVG/1.1/DTD/svg11.dtd">
<svg version="1.1" xmlns="http://www.w3.org/2000/svg" xmlns:xlink="http://www.w3.org/1999/xlink" x="0px" y="0px" viewBox="0 0 1000 1000" enable-background="new 0 0 1000 1000" xml:space="preserve" fill="#FFF">
<metadata> Svg Vector Icons : http://www.onlinewebfonts.com/icon </metadata>
<g><path d="M986.4,486.6L822.5,286.4c-3-3.7-7.5-5.8-12.3-5.8H631.5v-57.5c0-44.6-36.2-80.9-80.8-80.9H90.8c-44.6,0-80.8,36.3-80.8,80.9v454.2c0,44.6,36.2,80.8,80.8,80.8h67.4c7.8,56.1,56,99.5,114.2,99.5c58.3,0,106.4-43.4,114.2-99.5h164c26.6,0,50.2-13,64.9-32.9c12.2,16.4,30.4,28.1,51.3,31.6c7.3,56.7,55.8,100.8,114.4,100.8c58.3,0,106.4-43.4,114.2-99.5h13.7c44.6,0,80.8-36.3,80.8-80.8v-44.5v-42.3v-93.8C990,493,988.7,489.5,986.4,486.6z M958.2,520.3H763.7c-27,0-49-22-49-48.9v-35.4c0-27,22-49,49-49h99.8l94.6,115.5L958.2,520.3L958.2,520.3z M272.4,825.9c-46.1,0-83.6-37.5-83.6-83.6c0-46.1,37.5-83.6,83.6-83.6c46.1,0,83.6,37.5,83.6,83.6C356.1,788.4,318.6,825.9,272.4,825.9z M550.7,726.3h-164c-7.8-56.2-56-99.5-114.2-99.5c-58.3,0-106.4,43.4-114.2,99.5H90.8c-27,0-49-22-49-49V223.1c0-27,22-49,49-49h459.9c27,0,49,22,49,49v359.5v94.7C599.7,704.4,577.7,726.3,550.7,726.3z M781.3,825.9c-46.1,0-83.6-37.5-83.6-83.6c0-46.1,37.5-83.6,83.6-83.6c46.1,0,83.6,37.5,83.6,83.6C864.9,788.4,827.4,825.9,781.3,825.9z M958.2,632.9v44.5c0,27-22,49-49,49h-13.6c-7.8-56.2-56-99.5-114.2-99.5c-57.5,0-105.3,42.4-113.9,97.5c-20.6-5.8-35.9-24.5-35.9-47v-94.7V312.4h171.1l34.9,42.6h-73.8c-44.6,0-80.8,36.3-80.8,80.8v35.4c0,44.5,36.3,80.8,80.8,80.8h194.4v38.5L958.2,632.9L958.2,632.9z"/></g>
</svg>