<?xml version="1.0" encoding="utf-8"?>
<!-- Svg Vector Icons : http://www.onlinewebfonts.com/icon -->
<!DOCTYPE svg PUBLIC "-//W3C//DTD SVG 1.1//EN" "http://www.w3.org/Graphics/SVG/1.1/DTD/svg11.dtd">
<svg version="1.1" xmlns="http://www.w3.org/2000/svg" xmlns:xlink="http://www.w3.org/1999/xlink" x="0px" y="0px"
  viewBox="0 0 1000 1000" enable-background="new 0 0 1000 1000" xml:space="preserve" fill="#FFF">
  <metadata> Svg Vector Icons : http://www.onlinewebfonts.com/icon </metadata>
  <g>
    <g transform="translate(0.000000,511.000000) scale(0.100000,-0.100000)">
      <path
        d="M6886.9,3123.6c-47.9-46-47.9-49.8-47.9-392.6v-344.7l174.3-185.8c247.1-262.4,362-436.6,400.3-610.9c26.8-113,11.5-227.9-38.3-310.2l-38.3-61.3l-113,76.6c-339,231.7-779.4,342.8-1210.3,304.5c-229.8-21.1-379.2-63.2-589.9-162.8c-237.5-114.9-442.4-314.1-540-520.9l-65.1-139.8l-268.1,9.6c-432.8,13.4-1043.7,139.8-1522.5,312.2c-266.2,95.8-429,174.3-666.4,316c-212.6,128.3-505.6,264.3-750.7,350.5c-233.6,80.4-632,181.9-722,181.9c-172.4,0-227.9-321.7-113-651.1c88.1-254.7,258.5-484.5,478.8-639.6c105.3-76.6,139.8-90,337.1-126.4c337.1-63.2,674.1-149.4,821.6-208.7c224.1-91.9,404.1-237.5,524.7-427.1l32.6-51.7l-122.6-95.8l-122.6-93.8L2620-260.4c-614.7,519-1516.8,478.8-2079.8-91.9c-229.8-233.6-384.9-559.2-429-902c-93.8-739.2,407.9-1461.2,1145.2-1652.7c375.4-95.8,812-34.5,1147.1,164.7c231.7,136,530.5,459.6,603.3,653l21.1,51.7h1966.8h1968.7l76.6-139.8c99.6-180,373.4-457.7,555.4-565c444.3-258.5,997.8-277.7,1453.6-47.9c176.2,88.1,281.5,164.7,425.1,316c812,844.6,406,2236.8-737.3,2535.6c-59.4,15.3-122.6,26.8-141.7,26.8c-30.7,0-21.1,19.2,47.9,91.9c212.6,227.9,302.6,436.6,317.9,745c7.7,172.4,3.8,214.5-40.2,354.3c-159,505.6-745,1164.4-1449.7,1629.7c-229.8,151.3-440.5,262.4-497.9,262.4C6950.1,3171.4,6911.8,3150.4,6886.9,3123.6z M1869.3-534.3c394.5-103.4,679.9-476.9,679.9-890.5s-291.1-783.3-699-890.5c-565-145.5-1139.5,302.6-1139.5,890.5c0,411.7,283.4,783.3,672.2,888.6C1520.8-499.8,1729.5-497.9,1869.3-534.3z M8610.4-534.3c386.9-101.5,678-476.9,679.9-875.2c0-427.1-285.4-796.7-699-905.8c-565-145.5-1139.5,302.6-1139.5,890.5c0,409.8,283.4,785.2,672.2,888.6C8261.9-499.8,8470.7-497.9,8610.4-534.3z" />
    </g>
  </g>
</svg>