<?xml version="1.0" encoding="utf-8"?>
<!-- Svg Vector Icons : http://www.onlinewebfonts.com/icon -->
<!DOCTYPE svg PUBLIC "-//W3C//DTD SVG 1.1//EN" "http://www.w3.org/Graphics/SVG/1.1/DTD/svg11.dtd">
<svg version="1.1" xmlns="http://www.w3.org/2000/svg" xmlns:xlink="http://www.w3.org/1999/xlink" x="0px" y="0px" viewBox="0 0 1000 1000" enable-background="new 0 0 1000 1000" xml:space="preserve" fill="#fff">
<metadata> Svg Vector Icons : http://www.onlinewebfonts.com/icon </metadata>
<g><path d="M151.9,677.4c0,64.2,52.1,116.3,116.3,116.3c64.2,0,116.3-52.1,116.3-116.3l0,0c0-64.2-52.1-116.3-116.3-116.3C204,561.1,151.9,613.2,151.9,677.4z"/><path d="M641.6,679.6c0,64.2,52.1,116.3,116.3,116.3s116.3-52.1,116.3-116.3c0-64.2-52.1-116.3-116.3-116.3S641.6,615.4,641.6,679.6z"/><path d="M968.6,539.7l-3.3-297c0,0-3.3-21.4-14.8-29.7c-11.5-8.2-41.2-7-41.2-7L76,205.9c0,0-13.7-7.3-29.7,7.1c-16.5,14.8-14.8,28-14.8,28v245.8c0,0,0,23.1-11.5,24.7c-8.8,1.3-9.9,9.9-9.9,9.9v135.3c0,0-0.8,9.3,11.5,19.8c8.3,7.1,29.7,6.6,29.7,6.6h75.9c0,0,7.4-142.1,137.8-145.2c141.1-3.3,146,145.2,146,145.2h204.6c0,0,11.6-145.4,146.8-141.9c127,3.3,136.9,141.9,136.9,141.9h69.3v-36.3H990V539.7L968.6,539.7L968.6,539.7z M216.2,496.8H81v-231h135.3V496.8z M410.9,434.1H268.2V265.8h142.7V434.1z M582.5,434.1H439.8V266.9h142.7V434.1z M754.3,434.1H611.5V267.5h142.7V434.1z M924.8,434.1H782.1V267.5h142.7V434.1z"/></g>
</svg>