<?xml version="1.0" encoding="utf-8"?>
<!-- Svg Vector Icons : http://www.onlinewebfonts.com/icon -->
<!DOCTYPE svg PUBLIC "-//W3C//DTD SVG 1.1//EN" "http://www.w3.org/Graphics/SVG/1.1/DTD/svg11.dtd">
<svg version="1.1" xmlns="http://www.w3.org/2000/svg" xmlns:xlink="http://www.w3.org/1999/xlink" x="0px" y="0px" viewBox="0 0 1000 1000" enable-background="new 0 0 1000 1000" xml:space="preserve" fill="#FFF">
<metadata> Svg Vector Icons : http://www.onlinewebfonts.com/icon </metadata>
<g><g><g><path d="M793.9,634.5c0,3.6,0.3,7.1,0.7,10.5c5.2,41.3,40.3,73.2,83,73.2c43.8,0,79.8-33.7,83.4-76.6c0.2-2.4,0.4-4.7,0.4-7.2c0-46.2-37.5-83.7-83.7-83.7C831.4,550.8,793.9,588.2,793.9,634.5z M929.7,627.4h-24.1c-0.7-2.6-1.7-5.1-3-7.4l17.1-17.1C924.9,610,928.4,618.3,929.7,627.4z M919.6,666.3l-17.2-17.2c1.3-2.3,2.4-4.7,3.1-7.3h24.1C928.3,651,924.9,659.3,919.6,666.3z M884.9,662.4c2.6-0.7,5-1.7,7.2-3l17,17c-7,5.3-15.2,8.8-24.3,10.1L884.9,662.4L884.9,662.4z M884.9,582.5c9.1,1.3,17.5,4.8,24.5,10.1l-17.1,17.1c-2.3-1.4-4.8-2.4-7.4-3.1L884.9,582.5L884.9,582.5z M835.7,602.9l17.1,17.1c-1.3,2.3-2.4,4.7-3,7.4h-24.1C827,618.3,830.5,610,835.7,602.9z M870.4,606.7c-2.6,0.7-5.1,1.7-7.4,3.1L846,592.7c7-5.3,15.3-8.8,24.5-10.1L870.4,606.7L870.4,606.7z M846.1,676.4l17-17c2.2,1.3,4.7,2.3,7.3,2.9v24.2C861.4,685.3,853.1,681.7,846.1,676.4z M825.6,641.9h24.3c0.7,2.6,1.7,5,3,7.3l-17.1,17.1C830.5,659.3,826.9,651,825.6,641.9z"/><path d="M101.5,634.5c0,3.6,0.3,7.1,0.7,10.5c5.2,41.3,40.3,73.2,83,73.2c43.8,0,79.8-33.7,83.4-76.6c0.2-2.4,0.4-4.7,0.4-7.2c0-46.2-37.5-83.7-83.7-83.7C139,550.7,101.5,588.2,101.5,634.5z M237.2,627.4h-24.1c-0.7-2.6-1.7-5.1-3-7.4l17.1-17.1C232.5,610,236,618.3,237.2,627.4z M227.2,666.3L210,649.1c1.3-2.3,2.4-4.7,3.1-7.3h24.1C235.9,651,232.5,659.3,227.2,666.3z M192.5,662.4c2.6-0.7,5-1.7,7.3-3l17,17c-7,5.3-15.2,8.8-24.3,10.1L192.5,662.4L192.5,662.4z M192.5,582.5c9.1,1.3,17.5,4.8,24.5,10.1l-17.1,17.1c-2.3-1.4-4.8-2.4-7.4-3.1L192.5,582.5L192.5,582.5z M143.3,602.9l17.1,17.1c-1.3,2.3-2.4,4.7-3,7.4h-24.1C134.5,618.3,138,610,143.3,602.9z M178,606.7c-2.6,0.7-5.1,1.7-7.4,3.1l-17.1-17.1c7-5.3,15.3-8.8,24.5-10.1V606.7z M153.7,676.4l17-17c2.2,1.3,4.7,2.3,7.3,2.9v24.2C168.9,685.3,160.7,681.7,153.7,676.4z M133.2,641.9h24.3c0.7,2.6,1.7,5,3,7.3l-17.1,17.1C138.1,659.3,134.5,651,133.2,641.9z"/><path d="M16.1,653.8l67.1-1c-0.3-1.7-0.7-3.4-0.9-5.1c-0.6-4.7-0.9-9-0.9-13.1c0-57.3,46.6-103.8,103.8-103.8c57.3,0,103.8,46.6,103.8,103.8c0,3-0.2,5.9-0.4,8.9c-0.2,2.1-0.5,4.1-0.8,6.2l486.4-7.6c-0.2-2.5-0.3-5-0.3-7.4c0-57.3,46.6-103.8,103.8-103.8c52.2,0,95.3,38.7,102.6,88.9c5.8-12.7,11.4-30.1,9.2-47.2c-4.2-32.4-32.4-63.9-34.1-79.7c-1.7-15.8,5.3-28.8,1.2-51.2C952.5,419,913.5,345,874,319.9c-28.7-18.2-49.3-30.7-136.4-35.7c-122.6-7-206.8,1-280.7,23.5C413,321.1,262.6,399.3,217,424.6c-54,29.9-75.8,34.5-113.1,48c-43.1,15.6-70.5,49.8-81.3,75.7C11.9,574.2,4,606.4,16.1,653.8z M705.9,423.9L693,314.5c71.4,1.3,145.5,6.9,152,31.9c3.9,14.8-15.7,50.2-39,60.6C787.9,415.1,759.9,418.2,705.9,423.9z M357.5,407.8l8.1-23.9c96.6-51.9,145.8-69.7,265.6-69.7c5.5,0,11.1,0,16.9,0l-13.8,116.6c-125.6,11.1-273.8,20.3-273.8,20.3C372.5,426.6,357.5,407.8,357.5,407.8z"/></g></g><g></g><g></g><g></g><g></g><g></g><g></g><g></g><g></g><g></g><g></g><g></g><g></g><g></g><g></g><g></g></g>
</svg>