<?xml version="1.0" encoding="utf-8"?>
<!-- Svg Vector Icons : http://www.onlinewebfonts.com/icon -->
<!DOCTYPE svg PUBLIC "-//W3C//DTD SVG 1.1//EN" "http://www.w3.org/Graphics/SVG/1.1/DTD/svg11.dtd">
<svg version="1.1" xmlns="http://www.w3.org/2000/svg" xmlns:xlink="http://www.w3.org/1999/xlink" fill="#FFF" x="0px" y="0px" viewBox="0 0 1000 1000" enable-background="new 0 0 1000 1000" xml:space="preserve">
<metadata> Svg Vector Icons : http://www.onlinewebfonts.com/icon </metadata>
<g><g><g><path d="M749.3,92.1l-94.8-75.9c-5.1-4-11.4-6.2-17.9-6.2H363.3c-7,0-13.7,2.6-18.9,7.2l-94.7,84.4c-6,5.4-9.5,13.2-9.5,21.3v340.5c0,36.6,29.8,66.4,66.4,66.4h387c36.5,0,66.3-29.8,66.3-66.4v-349C759.9,105.7,755.9,97.5,749.3,92.1z M703,216.8c0,5.3-4.3,9.5-9.5,9.5h-387c-5.2,0-9.5-4.2-9.5-9.5v-81.2l77.2-68.7h252.4l76.4,61L703,216.8L703,216.8z"/><polygon points="310,789.9 325,789.9 341,990 371.8,990 387.8,789.9 402.8,789.9 402.8,553.5 310,553.5 "/><polygon points="460.5,789.9 475.5,789.9 491.5,990 522.3,990 538.3,789.9 553.4,789.9 553.4,553.5 460.5,553.5 "/><polygon points="606,789.9 620.9,789.9 637,990 667.8,990 683.8,789.9 698.8,789.9 698.8,553.5 606,553.5 "/><circle cx="500" cy="142.7" r="53.2"/></g></g><g></g><g></g><g></g><g></g><g></g><g></g><g></g><g></g><g></g><g></g><g></g><g></g><g></g><g></g><g></g></g>
</svg>