<svg width="615" height="373" viewBox="0 0 615 373" fill="none" xmlns="http://www.w3.org/2000/svg">
<rect width="615" height="373" stroke="#FFF"/>
<path d="M92.84 261.52C77.324 261.541 62.528 268.046 52.028 279.457C41.5228 290.874 36.2733 306.165 37.544 321.624C38.82 337.083 46.497 351.307 58.7266 360.853C70.9558 370.4 86.6173 374.395 101.924 371.879C117.231 369.359 130.784 360.556 139.309 347.598C147.835 334.634 150.554 318.702 146.809 303.65C143.794 291.619 136.846 280.937 127.069 273.301C117.293 265.67 105.241 261.525 92.84 261.519V261.52ZM92.84 280.165C97.3192 280.15 101.767 280.952 105.96 282.535L96.0952 300.196H90.2774L80.4129 282.535H80.4077C84.3817 281.035 88.5899 280.233 92.8399 280.165H92.84ZM58.5066 303.649C61.0536 297.498 65.2097 292.149 70.543 288.16L79.5222 303.748L80.6056 305.722C79.0326 307.43 77.8244 309.446 77.0534 311.639H56.3348C56.7514 308.904 57.4806 306.222 58.5066 303.649V303.649ZM56.3348 322.691H76.6574C77.4283 324.883 78.6366 326.899 80.2096 328.613L70.5429 346.17C62.9596 340.462 57.8762 332.055 56.3349 322.691L56.3348 322.691ZM92.8401 354.065C88.3557 354.081 83.9078 353.279 79.715 351.696L90.2724 334.332H96.0901L105.955 351.993H105.96C101.746 353.472 97.3036 354.175 92.8401 354.066L92.8401 354.065ZM115.632 346.175L105.768 328.711L105.762 328.705C107.335 326.997 108.544 324.981 109.314 322.789H129.741C128.215 332.081 123.205 340.445 115.73 346.169L115.632 346.175ZM109.023 311.544L109.018 311.539C108.247 309.346 107.038 307.336 105.465 305.622L106.549 303.648L115.528 288.06H115.533C120.695 292.138 124.679 297.519 127.075 303.648C128.09 306.19 128.82 308.836 129.247 311.539L109.023 311.544Z" fill="white"/>
<path d="M527.84 256.48C537.283 251.907 547.643 249.548 558.132 249.574H561.783C572.986 250.24 583.856 253.626 593.455 259.438C595.382 260.777 597.939 260.777 599.867 259.438C601.893 257.746 602.465 254.876 601.247 252.532L595.721 242.173C592.429 235.819 587.825 230.235 582.205 225.798V187.814C578.997 186.887 575.679 186.392 572.34 186.33C555.371 186.33 541.658 196.986 541.658 210.204V210.209C541.673 211.98 541.939 213.741 542.444 215.439H537.71V172.225V172.22C537.064 159.871 535.21 147.611 532.184 135.621C523.793 99.1948 507.413 65.0948 484.236 35.7721L480.09 31.2357C475.574 26.5169 470.585 22.2879 465.194 18.6055C464.808 13.7981 462.683 9.29813 459.209 5.95439C455.741 2.61066 451.162 0.65225 446.345 0.449184H119.372C99.1262 0.204397 79.5435 7.68359 64.6168 21.3665L40.9395 43.7625C24.8408 58.8039 15.6942 79.8452 15.6795 101.877V235.664H12.1274C5.99709 235.659 0.950292 240.487 0.684692 246.617V265.857C0.684692 272.175 5.80976 277.3 12.1274 277.3H15.3826V281.247C15.3669 285.268 16.4346 289.216 18.4607 292.69C20.4919 296.159 23.4138 299.023 26.9295 300.977C31.9972 280.987 45.8722 264.373 64.6428 255.826C83.4135 247.274 105.055 247.711 123.465 257.008C141.877 266.305 155.069 283.461 159.335 303.644H471.108C478.426 303.66 485.696 302.462 492.619 300.092C497.561 281.175 510.389 265.295 527.837 256.483L527.84 256.48ZM266.587 278.283H171.769V226.387H176.212C183.514 226.387 189.431 220.47 189.431 213.168C189.431 205.866 183.514 199.949 176.212 199.949H171.769C171.691 191.626 168.332 183.668 162.42 177.813C156.509 171.954 148.519 168.667 140.202 168.672H126.78V86.3857C126.78 76.8597 130.567 67.7244 137.301 60.9897C144.036 54.2553 153.171 50.4741 162.697 50.4741H266.588L266.587 278.283ZM369.691 278.283H330.227L330.221 205.371H369.685L369.691 278.283ZM435.993 278.283H384.389V205.371H388.827C394.28 205.371 398.697 200.954 398.697 195.506C398.697 190.058 394.28 185.642 388.827 185.642H291.941V131.079C293.087 131.47 294.285 131.667 295.494 131.673C301.697 131.459 306.603 126.334 306.546 120.126V96.2511C306.603 90.0428 301.697 84.9229 295.494 84.7095C294.29 84.6782 293.093 84.8449 291.941 85.2043V50.4749H435.595L435.993 278.283ZM464.212 159.887L464.207 48.204H478.019C497.94 75.2093 512.144 105.996 519.753 138.677C521.477 145.735 522.826 152.885 523.8 160.084L464.212 159.887Z" fill="white"/>
<path d="M558.333 261.52C547.854 261.515 537.588 264.494 528.735 270.103C520.339 275.452 513.527 282.947 509 291.811C501.609 306.29 500.932 323.285 507.151 338.311C513.37 353.338 525.859 364.879 541.328 369.899C556.792 374.92 573.683 372.91 587.536 364.405C601.396 355.894 610.828 341.743 613.348 325.675C615.869 309.613 611.223 293.254 600.64 280.91C590.057 268.566 574.594 261.478 558.334 261.519L558.333 261.52ZM558.333 280.165C562.813 280.15 567.26 280.952 571.453 282.535L561.589 300.196H555.771L545.906 282.535H545.901C549.88 281.035 554.083 280.233 558.333 280.165V280.165ZM535.541 288.056L545.406 305.52V305.525C543.833 307.239 542.625 309.249 541.854 311.442H521.827C523.291 302.228 528.192 293.906 535.54 288.161L535.541 288.056ZM521.828 322.687L542.151 322.692C542.921 324.885 544.13 326.9 545.703 328.614L535.838 346.078V346.073C528.354 340.354 523.344 331.99 521.828 322.693L521.828 322.687ZM558.333 354.067C553.849 354.082 549.406 353.28 545.214 351.697L555.078 334.036H560.896L570.76 351.697H570.766C566.786 353.197 562.583 353.999 558.333 354.067V354.067ZM581.125 346.176L571.261 328.712V328.707C572.829 326.999 574.037 324.983 574.808 322.79H595.136C593.636 332.066 588.662 340.426 581.224 346.17L581.125 346.176ZM574.516 311.545V311.54C573.745 309.347 572.537 307.337 570.964 305.623L580.828 288.159C588.193 293.935 593.094 302.295 594.542 311.539L574.516 311.545Z" fill="white"/>
</svg>
