<?xml version="1.0" encoding="utf-8"?>
<!-- Svg Vector Icons : http://www.onlinewebfonts.com/icon -->
<!DOCTYPE svg PUBLIC "-//W3C//DTD SVG 1.1//EN" "http://www.w3.org/Graphics/SVG/1.1/DTD/svg11.dtd">
<svg version="1.1" xmlns="http://www.w3.org/2000/svg" xmlns:xlink="http://www.w3.org/1999/xlink" x="0px" y="0px" viewBox="0 0 1000 1000" enable-background="new 0 0 1000 1000" xml:space="preserve" fill="#FFF">
<metadata> Svg Vector Icons : http://www.onlinewebfonts.com/icon </metadata>
<g><g transform="translate(0.000000,511.000000) scale(0.100000,-0.100000)"><path d="M8995.4,4927.4c-274.2-290.5-457.8-608.8-478.7-827.3l-9.3-120.8L6971.5,2441C6125.6,1592.8,5423.8,900.4,5409.9,900.4c-14,0-397.4,374.1-857.5,834.2l-831.9,831.9l53.5,218.4c44.2,183.6,53.4,278.9,53.4,613.5c0,364.8-4.6,409-60.4,574c-79,234.7-174.3,383.4-360.2,550.7c-178.9,165-434.5,302.1-715.7,388.1c-167.3,48.8-274.2,62.7-529.8,72l-323,13.9l-172-172l-172-172l416-418.3l418.3-418.3l106.9-369.5l109.2-369.5l-264.9-262.6l-262.6-262.6l-418.3,104.6l-418.3,104.6l-395,395l-395,392.7l-127.8-127.8l-127.8-130.1l2.3-260.3c2.3-399.7,95.3-743.6,281.2-1036.4c413.6-648.3,1036.4-855.1,1856.7-618.1l204.5,60.4L3351,565.7L4224.8-308l-237-237l-239.3-239.3l-109.2,109.2c-185.9,181.2-364.8,225.4-550.7,134.8c-62.7-30.2-569.3-520.5-1517.4-1468.6C65.2-3517.1,100.1-3479.9,100.1-3689.1c2.3-141.7,83.7-253.3,490.3-653c439.2-432.2,495-469.4,690.2-441.5c55.8,7,137.1,34.9,176.6,58.1c39.5,25.6,706.4,683.2,1482.6,1459.3c1206,1210.7,1412.8,1426.8,1433.8,1505.8c53.5,199.8,13.9,334.6-155.7,506.6l-109.2,109.2l239.3,239.3l237,237l562.4-557.7c311.4-306.7,1222.3-1213,2028.6-2014.7C8811.9-4867.2,8681.7-4762.7,9014-4741.7c316,20.9,622.8,223.1,778.5,513.5c62.8,120.8,79,174.3,86,330c18.6,343.9,158,181.3-2089.1,2414.4C6690.3-394,5793.3,507.7,5793.3,519.3c0,11.6,692.5,713.4,1540.7,1556.9l1538.3,1538.3l127.8,16.3c176.6,20.9,416,141.8,646,325.3c223.1,181.3,271.9,241.7,248.6,318.4c-20.9,65.1-601.9,660-690.2,706.4C9111.6,5029.7,9088.4,5022.7,8995.4,4927.4z M4059.8,1713.7c58.1-27.9,295.1-246.3,606.5-557.7l511.2-511.2l-348.6-348.6L4480.4-52.4l-518.2,515.9c-327.7,325.3-536.8,553-564.7,611.1c-109.2,232.4-9.3,525.2,216.1,636.7C3743.7,1774.1,3932,1776.4,4059.8,1713.7z M6959.8-1137.6c773.8-778.5,1426.8-1450,1450-1494.2c88.3-169.6,37.2-436.9-111.5-574c-127.8-118.5-355.5-158-525.2-88.3c-60.4,25.5-518.2,469.4-1508.1,1459.3L4840.6-412.6L5182.1-71c188.2,190.5,348.6,343.9,355.5,343.9S6183.7-361.4,6959.8-1137.6z M3072.2-1321.2c72-81.3,72-81.3,32.5-153.4c-99.9-169.6-457.8-564.7-1050.3-1157.2c-618.1-618.1-924.9-897-1136.3-1034.1l-99.9-65.1l-86,83.6c-83.7,83.7-83.7,83.7-46.5,160.4c69.7,144.1,422.9,541.4,994.6,1113.1c727.3,729.7,1187.4,1136.3,1292,1136.3C2988.5-1237.5,3032.7-1274.7,3072.2-1321.2z M3574.1-1818.4c65.1-67.4,65.1-72.1,30.2-148.7c-72-151-404.3-518.2-1050.3-1166.5c-648.3-646-1015.5-978.3-1166.5-1050.3c-76.7-34.9-81.3-34.9-148.7,30.2c-39.5,37.2-69.7,86-69.7,111.5c0,99.9,316,471.7,962,1127c671.6,680.9,1222.3,1166.5,1329.2,1166.5C3485.8-1748.7,3536.9-1778.9,3574.1-1818.4z"/></g></g>
</svg>