<?xml version="1.0" encoding="utf-8"?>
<!-- Svg Vector Icons : http://www.onlinewebfonts.com/icon -->
<!DOCTYPE svg PUBLIC "-//W3C//DTD SVG 1.1//EN" "http://www.w3.org/Graphics/SVG/1.1/DTD/svg11.dtd">
<svg version="1.1" xmlns="http://www.w3.org/2000/svg" xmlns:xlink="http://www.w3.org/1999/xlink" x="0px" y="0px" viewBox="0 0 1000 1000" enable-background="new 0 0 1000 1000" xml:space="preserve" fill="#FFF">
<metadata> Svg Vector Icons : http://www.onlinewebfonts.com/icon </metadata>
<g><path d="M79.4,655.5c0,41,33.3,74.3,74.3,74.3c41,0,74.3-33.3,74.3-74.3c0-41-33.3-74.3-74.3-74.3C112.6,581.2,79.4,614.5,79.4,655.5z"/><path d="M576.1,655.5c0,41,33.3,74.3,74.3,74.3c41,0,74.3-33.3,74.3-74.3c0-41-33.3-74.3-74.3-74.3C609.4,581.2,576.1,614.5,576.1,655.5z"/><path d="M774.3,655.5c0,41,33.3,74.3,74.3,74.3s74.3-33.3,74.3-74.3c0-41-33.3-74.3-74.3-74.3S774.3,614.5,774.3,655.5z"/><path d="M414.5,270.2l1.6,271.9l-37.4-1.2V324H236.7c0,0-26.1,19.6-52.2,52.2c-26.1,32.6-55.4,92.9-55.4,92.9L50.7,472c0,0-14.1,4.6-23.9,14.4c-9.8,9.8-16.7,31.5-16.7,31.5L10,625.6v8.2h57.2c0,0,15-70.9,87.6-68.8c0,0,37.7-7.2,68.8,29c11.5,13.4,18,39.8,18,39.8h319.6c0,0,19.4-72.9,91.1-71.3s88.3,71.3,88.3,71.3h19.6c0,0,17.9-71.7,89.7-71.7c71.7,0,88,71.7,88,71.7H990V270.2H414.5z M348.6,471.2H174.7c0,0,18.5-42.4,29.3-60.9c10.9-18.5,38-48.9,38-48.9h106.5V471.2z"/></g>
</svg>